<svg width="120" height="50" viewBox="0 130 400 170" preserveAspectRatio="xMidYMid meet" xmlns="http://www.w3.org/2000/svg">
	<path fill="#9951DB" d="M6.154 160q.669 0 1.137.468t.468 1.137v3.256q0 .669-.468 1.137t-1.137.468H1.561q-.625 0-1.093-.468T0 164.86v-3.256q0-.669.468-1.137T1.561 160h4.593zm19.933 0q.625 0 1.093.468t.468 1.137v3.256q0 .669-.468 1.137t-1.093.468h-8.963v25.33q0 .624-.468 1.092t-1.093.468H12.13q-.67 0-1.138-.468t-.468-1.093v-30.19q0-.669.468-1.137T12.13 160h13.957zm39.083 30.904q.312.713-.156 1.449t-1.271.736h-29.7q-.401 0-.758-.201t-.535-.513q-.49-.713-.134-1.471l1.382-3.256q.179-.446.58-.713t.847-.268h20.781l-7.313-17.48-5.976 14.27q-.178.445-.557.69t-.87.246h-3.746q-.847 0-1.338-.714-.178-.312-.222-.713t.089-.758l9.052-21.227q.179-.446.558-.713t.87-.268h4.28q.49 0 .87.268t.557.713zM78.03 160q.625 0 1.093.468t.468 1.093v29.878q0 .624-.468 1.092T78.03 193h-3.389q-.624 0-1.092-.469t-.468-1.092V161.56q0-.625.468-1.093T74.64 160h3.39zm16.277 26.623q.67 0 1.115.468t.446 1.092v3.256q0 .624-.446 1.092t-1.115.469h-10.39q-.669 0-1.115-.469t-.446-1.092v-3.256q0-.624.446-1.092t1.115-.468h10.39zm33.419.044q.669 0 1.115.468t.446 1.138v3.255q0 .624-.446 1.092t-1.115.469h-22.03q-.624 0-1.092-.469t-.468-1.092v-3.255q0-.67.468-1.138t1.093-.468h22.029zm-22.03-6.912q-.624 0-1.092-.468t-.468-1.093v-3.344q0-.625.468-1.093t1.093-.468h20.022q.67 0 1.137.468t.469 1.093v3.344q0 .625-.469 1.093t-1.137.468h-20.022zM127.727 160q.669 0 1.115.468t.446 1.093v3.255q0 .67-.446 1.137t-1.115.469h-22.03q-.624 0-1.092-.469t-.468-1.137v-3.255q0-.625.468-1.093t1.093-.468h22.029zm38.235 0q.624 0 1.092.468t.469 1.093v29.878q0 .624-.469 1.092t-1.092.469h-3.924q-.803 0-1.294-.625l-21.806-29.878q-.268-.356-.312-.802t.156-.848.58-.624.825-.223h3.924q.357 0 .713.156t.535.468l15.653 21.272V161.56q0-.625.446-1.093t1.115-.468h3.389zm-22.386 21.628q.624 0 1.092.446t.468 1.115v8.25q0 .624-.468 1.092t-1.092.469h-3.39q-.624 0-1.092-.469t-.468-1.092v-8.25q0-.67.468-1.115t1.093-.446h3.389zM181.855 160q.668 0 1.136.468t.468 1.137v3.256q0 .669-.468 1.137t-1.137.468h-4.593q-.624 0-1.093-.468t-.468-1.137v-3.256q0-.669.468-1.137t1.093-.468h4.593zm19.933 0q.624 0 1.092.468t.468 1.137v3.256q0 .669-.468 1.137t-1.092.468h-8.964v25.33q0 .624-.468 1.092t-1.093.468h-3.433q-.67 0-1.137-.468t-.469-1.093v-30.19q0-.669.469-1.137t1.137-.468h13.958zm30.876 20.29 6.734 10.301q.49.803.045 1.606-.179.357-.558.58t-.78.223h-4.058q-.402 0-.758-.201t-.535-.513l-6.779-10.747h-7.937v9.9q0 .624-.469 1.092t-1.092.469h-3.39q-.624 0-1.092-.469t-.468-1.092v-14.672q0-.624.468-1.092t1.093-.468h13.735q3.924 0 5.217-2.23.446-.714.446-2.051 0-2.096-1.382-3.3-1.427-1.294-4.103-1.294h-13.913q-.625 0-1.093-.468t-.468-1.092v-3.211q0-.625.468-1.093t1.093-.468h14.314q5.218 0 8.34 2.943 3.255 2.943 3.255 7.983 0 3.255-1.427 5.551t-4.147 3.501zm45.415 10.614q.312.713-.156 1.449t-1.271.736h-29.7q-.401 0-.758-.201t-.535-.513q-.49-.713-.134-1.471l1.383-3.256q.178-.446.58-.713t.847-.268h20.78l-7.313-17.48-5.975 14.27q-.179.445-.558.69t-.87.246h-3.745q-.848 0-1.338-.714-.179-.312-.223-.713t.089-.758l9.053-21.227q.178-.446.557-.713t.87-.268h4.28q.491 0 .87.268t.558.713zm27.844-29.745q2.72 1.026 4.906 3.3 4.682 4.727 4.682 12.063t-4.682 12.107q-2.185 2.275-4.906 3.3-2.81 1.16-5.752 1.16h-12.62q-.625 0-1.093-.469t-.468-1.092v-3.21q0-.67.468-1.138t1.093-.468h12.486q3.969 0 6.444-2.899t2.475-7.269-2.475-7.268-6.444-2.9H287.55q-.625 0-1.093-.467t-.468-1.137v-3.211q0-.625.468-1.093t1.093-.468h12.62q2.943 0 5.752 1.16zm42.516 25.508q.67 0 1.115.468t.446 1.138v3.255q0 .624-.446 1.092t-1.115.469h-22.03q-.624 0-1.092-.469t-.468-1.092v-3.255q0-.67.468-1.138t1.093-.468h22.03zm-22.03-6.912q-.624 0-1.092-.468t-.468-1.093v-3.344q0-.625.468-1.093t1.093-.468h20.022q.67 0 1.138.468t.468 1.093v3.344q0 .625-.468 1.093t-1.138.468H326.41zM348.44 160q.67 0 1.115.468t.446 1.093v3.255q0 .67-.446 1.137t-1.115.469h-22.03q-.624 0-1.092-.469t-.468-1.137v-3.255q0-.625.468-1.093t1.093-.468h22.03z" />
</svg>
