<svg width="150" height="150" viewBox="0 0 1650 1698" fill="none" xmlns="http://www.w3.org/2000/svg">
<path d="M1645.36 14.9006C1642.37 7.15557 1635.83 -2.63643 1626.19 1.83057C1611.79 8.50257 1597.39 15.1736 1582.99 21.8456C1543.81 39.9996 1504.63 58.1546 1465.45 76.3096C1407.71 103.063 1349.97 129.816 1292.23 156.569C1221.82 189.196 1151.4 221.823 1080.98 254.451C1003.36 290.415 925.745 326.38 848.126 362.344C770.266 398.42 692.406 434.496 614.547 470.572C541.945 504.212 469.343 537.852 396.74 571.492C335.193 600.009 273.647 628.527 212.1 657.044C167.869 677.538 123.639 698.032 79.4084 718.526C58.5774 728.178 37.3174 737.227 16.7984 747.536C15.9184 747.978 15.0074 748.366 14.1134 748.78C3.26742 753.805 0.499424 773.863 0.725424 783.949C1.00242 796.337 3.22642 811.476 14.1134 819.118C32.1304 831.765 50.1474 844.412 68.1634 857.06C111.668 887.599 155.173 918.138 198.678 948.677C251.119 985.489 303.56 1022.3 356.001 1059.11C401.535 1091.08 447.069 1123.04 492.604 1155C507.549 1165.49 522.495 1175.98 537.44 1186.48C541.781 1189.52 546.083 1192.91 550.495 1196.06C560.652 1252.42 570.81 1308.77 580.967 1365.13C591.498 1423.57 602.03 1482 612.561 1540.43C613.103 1543.44 613.646 1546.45 614.188 1549.46C614.64 1553.28 615.411 1557.17 616.61 1560.72C617.89 1564.94 619.745 1568.95 622.685 1571.9C622.784 1572.01 622.892 1572.12 622.994 1572.22C625.124 1574.77 627.768 1576.82 630.982 1576.9C632.889 1577.23 634.856 1576.92 636.736 1575.58C637.567 1575.07 638.353 1574.51 639.096 1573.89C664.263 1555.86 689.431 1537.83 714.599 1519.81C755.911 1490.22 797.223 1460.63 838.535 1431.04C846.342 1425.45 854.149 1419.85 861.956 1414.26C881.432 1427.93 900.907 1441.6 920.383 1455.28C970.201 1490.25 1020.02 1525.21 1069.84 1560.18C1113.1 1590.55 1156.37 1620.93 1199.64 1651.3C1213.85 1661.27 1228.06 1671.24 1242.27 1681.22C1248.91 1685.88 1255.54 1691.68 1262.69 1695.55C1262.99 1695.72 1263.27 1695.97 1263.56 1696.17C1273.41 1703.08 1282.6 1686.38 1284.16 1679.41C1287.38 1664.95 1290.61 1650.48 1293.84 1636.02C1302.63 1596.66 1311.42 1557.31 1320.21 1517.95C1333.21 1459.73 1346.21 1401.51 1359.21 1343.3C1375.07 1272.26 1390.93 1201.22 1406.79 1130.18C1424.17 1052.36 1441.54 974.543 1458.92 896.722C1476.52 817.9 1494.12 739.079 1511.72 660.257C1528.08 587.013 1544.43 513.769 1560.79 440.524C1574.61 378.631 1588.43 316.739 1602.25 254.846C1612.18 210.343 1622.12 165.84 1632.06 121.337C1636.76 100.262 1641.5 79.1926 1646.18 58.1106C1646.38 57.2086 1646.58 56.3076 1646.78 55.4056C1649.8 41.8916 1650.44 28.0676 1645.36 14.9006ZM590.453 1203.23C589.381 1197.28 588.309 1191.33 587.237 1185.38C590.271 1182.44 593.305 1179.49 596.338 1176.54C616.792 1156.67 637.246 1136.81 657.7 1116.94C687.829 1087.67 717.957 1058.4 748.086 1029.14C784.828 993.445 821.569 957.754 858.311 922.063C898.696 882.833 939.081 843.603 979.465 804.373C1020.23 764.773 1061 725.173 1101.76 685.573C1139.64 648.777 1177.52 611.982 1215.4 575.186C1218.59 572.088 1221.78 568.989 1224.97 565.891C1216.84 577.61 1208.72 589.329 1200.59 601.048C1162.18 656.463 1123.76 711.879 1085.35 767.294C1046.28 823.657 1007.21 880.02 968.134 936.382C933.002 987.061 897.87 1037.74 862.739 1088.42C836.144 1126.78 809.549 1165.15 782.954 1203.51C769.493 1222.93 756.031 1242.35 742.57 1261.77C741.861 1262.79 741.189 1263.82 740.518 1264.86C740.411 1264.97 740.298 1265.08 740.197 1265.19C737.971 1267.65 736.206 1270.97 734.861 1274.5C734.174 1275.8 733.503 1277.12 732.853 1278.47C722.458 1300.03 712.063 1321.59 701.668 1343.15C680.802 1386.43 659.935 1429.71 639.069 1472.98C634.949 1450.12 630.829 1427.26 626.709 1404.4C614.625 1337.34 602.539 1270.29 590.453 1203.23ZM779.201 1396.26C752.481 1415.39 725.76 1434.53 699.04 1453.67C701.316 1448.95 703.591 1444.23 705.866 1439.51C719.465 1411.31 733.065 1383.1 746.664 1354.9C749.253 1349.53 751.842 1344.16 754.431 1338.79C768.373 1348.57 782.314 1358.36 796.255 1368.14C799.991 1370.77 803.727 1373.39 807.463 1376.01C798.043 1382.76 788.622 1389.51 779.201 1396.26ZM1540.24 354.701C1524.38 425.739 1508.52 496.777 1492.65 567.815C1475.28 645.636 1457.9 723.456 1440.52 801.277C1422.92 880.099 1405.32 958.92 1387.72 1037.74C1371.37 1110.99 1355.01 1184.23 1338.66 1257.47C1324.84 1319.37 1311.02 1381.26 1297.2 1443.15C1287.26 1487.66 1277.32 1532.16 1267.39 1576.66C1264.5 1589.58 1261.37 1602.49 1258.44 1615.43C1246.15 1606.8 1233.85 1598.17 1221.56 1589.54C1180.18 1560.5 1138.81 1531.45 1097.43 1502.41C1047.61 1467.44 997.793 1432.47 947.975 1397.5C904.709 1367.13 861.443 1336.76 818.177 1306.39C808.207 1299.39 798.237 1292.39 788.267 1285.39C812.061 1251.07 835.856 1216.74 859.65 1182.42C893.194 1134.03 926.738 1085.64 960.282 1037.25C998.843 981.627 1037.4 926.001 1075.97 870.375C1114.95 814.143 1153.93 757.911 1192.91 701.678C1227.71 651.471 1262.52 601.263 1297.32 551.056C1323.36 513.504 1349.39 475.953 1375.42 438.401C1388.07 420.155 1400.72 401.908 1413.36 383.662C1413.92 382.866 1414.47 382.071 1415.02 381.275C1424.62 367.419 1426.86 347.416 1421.56 331.374C1417.69 319.673 1408.52 306.716 1396.61 318.29C1383.64 330.886 1370.68 343.482 1357.71 356.078C1323.95 388.876 1290.18 421.674 1256.42 454.472C1208.85 500.681 1161.28 546.89 1113.71 593.099C1059.98 645.291 1006.26 697.482 952.527 749.674C899.85 800.845 847.173 852.015 794.496 903.186C750.189 946.226 705.882 989.266 661.576 1032.31C632.958 1060.1 604.341 1087.9 575.723 1115.7C571.639 1119.67 567.555 1123.64 563.471 1127.6C547.441 1116.35 531.411 1105.1 515.381 1093.85C471.876 1063.31 428.371 1032.77 384.867 1002.23C332.426 965.418 279.985 928.606 227.544 891.794C182.01 859.83 136.476 827.867 90.9414 795.903C88.6904 794.323 86.4454 792.73 84.2014 791.136C117.651 775.637 151.101 760.138 184.551 744.639C242.29 717.886 300.028 691.133 357.767 664.38C428.183 631.753 498.6 599.126 569.016 566.499C646.635 530.535 724.253 494.57 801.872 458.606C879.732 422.53 957.592 386.454 1035.45 350.378C1108.05 316.738 1180.66 283.098 1253.26 249.458C1314.81 220.941 1376.35 192.423 1437.9 163.906C1482.13 143.412 1526.36 122.918 1570.59 102.424C1580.21 97.9676 1589.87 93.5946 1599.53 89.1886C1592.76 119.476 1586 149.763 1579.24 180.05C1566.24 238.267 1553.24 296.484 1540.24 354.701Z" fill="black"/>
<path d="M1600 88.5L83.5 791L563.5 1128.5L1373 342.5L1389.5 326.5L1390.5 325L1392.5 324C1392.83 323.667 1393.5 322.9 1393.5 322.5C1393.5 322.1 1394.17 322 1394.5 322L1395 321.5L1396 320.5C1396.33 320.333 1397 319.9 1397 319.5C1397 319.1 1398.33 318 1399 317.5L1400.5 316L1405 314.5H1406.5L1408 315L1412.5 318L1416.5 322L1419 327L1422.5 337L1424 351L1422 364L1418 375.5L787.5 1285.5L1259 1616.5L1600 88.5Z" fill="#9951DB" stroke="black"/>
</svg>
